<?xml version="1.0" encoding="UTF-8"?>
<svg width="509px" height="213px" viewBox="0 0 509 213" version="1.1" xmlns="http://www.w3.org/2000/svg" xmlns:xlink="http://www.w3.org/1999/xlink">
    <title>microwings</title>
    <g id="Page-1" stroke="none" stroke-width="1" fill="none" fill-rule="evenodd">
        <g id="microwings">
            <path d="M255.3,81.9 C256.9,68.1 263.1,50.7 270.5,39.5 C272.6,36.2 278.2,29.7 282.9,25 C294.7,13.3 306.9,6.4 323.9,2 C341.5,-2.7 348.2,1 345.9,13.8 C343.6,26.3 331.8,41.4 316.6,51.4 C312.1,54.4 296.8,63.4 282.5,71.5 C268.2,79.6 256.1,86.5 255.6,86.8 C255.1,87.1 255,85 255.3,81.9 Z" id="Path" fill="#CFE905" fill-rule="nonzero"></path>
            <path d="M212.7,70.7 C199,62.9 184.9,54.1 181.4,51.2 C167.6,39.9 159.6,19.9 167.2,15.9 C172.1,13.3 188,16.8 200.2,23.2 C220.3,33.8 234.6,55.2 238.5,80.8 C238.9,83.1 238.8,85 238.3,85 C237.9,85 226.3,78.6 212.7,70.7 Z" id="Path" fill="#CFE905" fill-rule="nonzero"></path>
            <path d="M255.3,81.8 C256.9,68.1 263.2,50.7 270.5,39.5 C272.6,36.2 278.2,29.7 282.9,25 C294.7,13.3 306.9,6.4 323.9,2 C339.6,-2.2 346.5,0.2 346.2,9.6 C346.1,15 343.2,24.5 343.1,20 C343,16.3 339.4,11.1 336.4,10.4 C331.4,9.1 320.5,10.8 311.9,14.1 C307.3,15.9 303.3,17.6 303,17.9 C302.7,18.2 300.9,19.2 299,20.1 C293.7,22.6 284.5,30.5 278.5,37.7 C273.9,43.4 266,56.4 265.9,58.7 C265.8,59.2 265.2,60.9 264.5,62.7 C263.7,64.5 262.9,67.2 262.6,68.7 C260.8,77.6 260.1,82.4 260.6,83.1 C260.8,83.6 259.6,84.7 257.9,85.6 L254.7,87.2 L255.3,81.8 Z" id="Path" fill="#000000" fill-rule="nonzero"></path>
            <path d="M236.2,84.1 C235.4,83.7 234.7,82 234.5,80.4 C234.1,76.6 233.1,71.9 232.3,70 C232,69.2 231.5,67.7 231.3,66.6 C230.7,63.2 224.5,51.7 221.8,48.7 C220.2,47.1 219,45.4 219,45 C219,42.8 200.8,29.3 196.8,28.6 C196.1,28.5 193.8,27.6 191.7,26.7 C186.2,24.3 176.8,22.6 173.7,23.4 C170.5,24.2 166.7,27.7 167.5,29 C167.8,29.5 167.6,30.1 167.1,30.5 C165.7,31.3 163.8,23.4 164.5,19.9 C164.9,18.3 166.1,16.5 167.2,15.9 C172.1,13.3 188,16.8 200.2,23.2 C220.3,33.8 234.6,55.2 238.5,80.8 C239.2,85 238.7,85.7 236.2,84.1 Z" id="Path" fill="#000000" fill-rule="nonzero"></path>
            <text id="microgreens-and-mushrooms" font-family="ILoveGlitter, I Love Glitter" font-size="48" font-weight="normal" letter-spacing="2.19" fill="#000000">
                <tspan x="10.279" y="198.5">microgreens & mushrooms</tspan>
            </text>
            <text id="Angel-Grows" font-family="BananaYeti-ExtraBold, Banana Yeti" font-size="104" font-weight="700" letter-spacing="4.745" fill="#000000">
                <tspan x="0.2265" y="155">Angel Grows</tspan>
            </text>
        </g>
    </g>
</svg>